<?xml version="1.0" encoding="utf-8"?>
<!-- Generator: Adobe Illustrator 16.0.0, SVG Export Plug-In . SVG Version: 6.00 Build 0)  -->
<!DOCTYPE svg PUBLIC "-//W3C//DTD SVG 1.1//EN" "http://www.w3.org/Graphics/SVG/1.1/DTD/svg11.dtd">
<svg version="1.1" id="图层_1" xmlns="http://www.w3.org/2000/svg" xmlns:xlink="http://www.w3.org/1999/xlink" x="0px" y="0px"
	 width="170.08px" height="56.69px" viewBox="0 0 170.08 56.69" enable-background="new 0 0 170.08 56.69" xml:space="preserve">
<path fill-rule="evenodd" clip-rule="evenodd" fill="#009DDA" d="M12.712,27.795c-0.444,0-0.804-0.36-0.804-0.804v-9.259h0.016
	c-0.01-0.051-0.016-0.103-0.016-0.157c0-0.444,0.36-0.804,0.804-0.804h17.039l-5.513,11.024H12.712L12.712,27.795z M25.901,51.404
	l4.54-8.951v8.57l0,0.01c0,0.444,0.36,0.805,0.804,0.805l0,0h8.188l0,0c0.444,0,0.804-0.36,0.804-0.805v-0.01v-8.572l4.519,8.915
	c0.126,0.278,0.407,0.472,0.732,0.472h10.836l0,0c0.444,0,0.804-0.36,0.804-0.805c0-0.115-0.025-0.225-0.069-0.325l0.001-0.001
	L35.998,8.586h-0.002c-0.126-0.278-0.407-0.471-0.732-0.471s-0.605,0.193-0.732,0.471H34.53L13.467,50.708l0.001,0.001
	c-0.044,0.1-0.069,0.209-0.069,0.326c0,0.443,0.36,0.803,0.804,0.803h11.006l0,0C25.51,51.829,25.77,51.655,25.901,51.404
	L25.901,51.404z"/>
<path fill-rule="evenodd" clip-rule="evenodd" fill="#F18D00" d="M37.764,10.746l2.218-3.583c0.139-0.241,0.398-0.402,0.697-0.402
	c0.345,0,0.64,0.218,0.754,0.524h0.002l16.283,43.363L37.764,10.746L37.764,10.746z M57.816,27.795c0.444,0,0.804-0.36,0.804-0.804
	v-9.259h-0.016c0.01-0.051,0.016-0.103,0.016-0.157c0-0.444-0.36-0.804-0.804-0.804H45.652l4.14,11.024H57.816z"/>
<g>
	<path fill-rule="evenodd" clip-rule="evenodd" d="M67.698,23.019v-1.953h8.718v-1.71l1.932,0.011v1.7h8.711v1.953h-8.711v14.106
		h-1.932V23.019H67.698L67.698,23.019z M67.716,37.125c1.61-0.133,2.654-0.863,3.134-2.189c0.107-0.287,0.225-0.931,0.357-1.929
		l1.13-8.668h-1.95l-1.212,9.265c-0.079,0.623-0.265,1.045-0.558,1.268c-0.193,0.153-0.494,0.261-0.901,0.314V37.125L67.716,37.125z
		 M82.426,24.338l1.245,9.832c0.058,0.418,0.197,0.836,0.419,1.259c0.329,0.608,0.801,1.06,1.417,1.353
		c0.343,0.168,0.844,0.282,1.509,0.344v-1.939c-0.35-0.054-0.597-0.125-0.744-0.207c-0.25-0.141-0.439-0.373-0.565-0.694
		c-0.057-0.147-0.139-0.651-0.254-1.517l-1.109-8.429H82.426L82.426,24.338z M91.309,23.019v-1.953h8.719v-1.71l1.932,0.011v1.7
		h8.711v1.953h-8.711v14.106h-1.932V23.019H91.309L91.309,23.019z M91.327,37.125c1.609-0.133,2.654-0.863,3.134-2.189
		c0.107-0.287,0.225-0.931,0.357-1.929l1.131-8.668h-1.95l-1.212,9.265c-0.08,0.623-0.266,1.045-0.559,1.268
		c-0.193,0.153-0.494,0.261-0.901,0.314V37.125L91.327,37.125z M106.037,24.338l1.245,9.832c0.058,0.418,0.196,0.836,0.419,1.259
		c0.328,0.608,0.801,1.06,1.416,1.353c0.344,0.168,0.845,0.282,1.51,0.344v-1.939c-0.351-0.054-0.598-0.125-0.744-0.207
		c-0.25-0.141-0.439-0.373-0.564-0.694c-0.058-0.147-0.141-0.651-0.254-1.517l-1.109-8.429H106.037L106.037,24.338z M114.967,37.039
		v-15.04c0-0.776,0.254-1.424,0.766-1.939c0.504-0.505,1.194-0.755,2.067-0.755h13.434c0.93,0,1.656,0.225,2.179,0.68
		c0.555,0.49,0.83,1.184,0.83,2.078v12.292c0,0.733-0.236,1.355-0.712,1.863c-0.512,0.548-1.202,0.82-2.079,0.82h-1.788V35.11h1.474
		c0.293,0,0.562-0.104,0.798-0.315s0.357-0.447,0.357-0.711l-0.011-11.57c0-0.862-0.454-1.292-1.363-1.292h-12.664
		c-0.904,0-1.355,0.429-1.355,1.288v14.528H114.967L114.967,37.039z M117.864,34.145c0.712-0.494,1.263-0.927,1.646-1.299
		c0.444-0.404,0.909-0.934,1.398-1.581c1.013,1.319,2.032,2.278,3.053,2.88v-2.189c-0.806-0.733-1.507-1.514-2.107-2.336
		c0.515-0.966,0.962-2.14,1.341-3.524c0.358-1.334,0.615-2.268,0.776-2.809h-1.856c-0.525,2.036-0.934,3.449-1.227,4.247
		c-0.286-0.852-0.688-2.268-1.199-4.247h-1.835c0.322,1.238,0.647,2.404,0.977,3.502c0.272,0.887,0.634,1.832,1.08,2.84
		c-0.446,0.756-1.13,1.51-2.046,2.266V34.145L117.864,34.145z M124.948,34.137c1.13-0.708,2.146-1.663,3.055-2.872
		c0.236,0.354,0.598,0.78,1.084,1.277c0.637,0.65,1.288,1.188,1.957,1.612v-2.242c-0.858-0.684-1.55-1.449-2.071-2.293
		c0.529-1.202,0.973-2.415,1.331-3.639c0.199-0.69,0.443-1.588,0.729-2.694h-1.817c-0.813,2.837-1.224,4.282-1.234,4.329
		c-0.433-1.424-0.826-2.869-1.184-4.329h-1.828c0.411,1.596,0.711,2.697,0.897,3.313c0.218,0.712,0.598,1.717,1.141,3.009
		c-0.482,0.798-1.169,1.566-2.06,2.314V34.137L124.948,34.137z M141.607,19.348h2.308l-3.102,5.688h1.277l0.473-0.798l2.357,0.011
		l-4.035,7.076h3.752v1.914h-4.203c-1.252,0.007-1.878-0.401-1.878-1.216c0-0.395,0.097-0.77,0.293-1.123l2.15-3.929l-1.167-0.01
		c-0.461,0-0.808-0.132-1.048-0.397c-0.211-0.229-0.314-0.498-0.314-0.798c0-0.444,0.175-0.991,0.525-1.632L141.607,19.348
		L141.607,19.348z M138.643,37.014v-1.975h6.186v1.975H138.643L138.643,37.014z M145.812,28.785v-1.971
		c0.884-0.014,1.534-0.036,1.953-0.071c0.404-0.043,0.923-0.143,1.563-0.304l-2.473-1.885l3.105,0.011l1.499,0.995
		c2.372-1.563,3.56-2.576,3.56-3.038c0-0.272-0.347-0.408-1.037-0.408h-5.599c-0.387,0.558-0.74,0.995-1.063,1.31
		c-0.4,0.397-0.905,0.748-1.51,1.044v-2.25c0.504-0.476,0.88-1.002,1.119-1.582c0.147-0.343,0.301-0.794,0.47-1.352l2.035,0.011
		l-0.211,0.848l5.248-0.007c1.016,0,1.753,0.204,2.218,0.615c0.476,0.426,0.712,0.916,0.712,1.467c0,0.293-0.101,0.637-0.304,1.027
		c-0.251,0.483-0.533,0.851-0.841,1.108l-2.633,2.146c0.665,0.19,1.255,0.304,1.771,0.347c0.161,0.014,0.959,0.036,2.396,0.064
		v1.925c-1.366-0.04-2.489-0.14-3.362-0.293c-0.776-0.132-1.696-0.39-2.758-0.772c-1.006,0.404-1.954,0.662-2.849,0.772
		C148.184,28.621,147.178,28.699,145.812,28.785L145.812,28.785z M147.64,29.736h7.981c0.611,0,1.087,0.18,1.42,0.537
		c0.34,0.365,0.512,0.779,0.512,1.245v3.31c0,1.498-0.598,2.25-1.796,2.25h-7.949c-0.493,0-0.848-0.058-1.056-0.168
		c-0.611-0.314-0.919-0.848-0.919-1.6v-3.045c0-0.014,0-0.125,0-0.336c-0.021-0.74,0.157-1.302,0.54-1.688
		C146.706,29.904,147.128,29.736,147.64,29.736L147.64,29.736z M148.52,35.143l6.515,0.011c0.39,0,0.587-0.255,0.587-0.763v-2.146
		c0-0.164-0.062-0.304-0.179-0.426c-0.097-0.1-0.201-0.149-0.305-0.149l-0.261,0.021h-6.314l-0.368-0.021
		c-0.286,0.015-0.43,0.232-0.43,0.658v2.261C147.765,34.953,148.015,35.135,148.52,35.143z"/>
	<path fill-rule="evenodd" clip-rule="evenodd" d="M67.5,47.783v-7.063h1.4l1.67,4.999c0.154,0.466,0.266,0.813,0.337,1.046
		c0.08-0.257,0.207-0.635,0.378-1.133l1.699-4.912h1.251v7.063h-0.897v-5.908l-2.061,5.908h-0.841l-2.039-6.016v6.016H67.5
		L67.5,47.783z M80.938,40.721h0.937v4.078c0,0.711-0.081,1.274-0.24,1.691c-0.161,0.416-0.451,0.756-0.868,1.018
		c-0.419,0.262-0.966,0.393-1.647,0.393c-0.659,0-1.2-0.113-1.619-0.342c-0.421-0.229-0.72-0.557-0.899-0.989
		s-0.27-1.022-0.27-1.771v-4.078h0.937v4.077c0,0.612,0.057,1.066,0.171,1.356s0.308,0.516,0.585,0.672
		c0.276,0.158,0.614,0.236,1.014,0.236c0.684,0,1.172-0.156,1.463-0.467c0.291-0.313,0.436-0.91,0.436-1.798V40.721L80.938,40.721z
		 M86.187,47.783v-7.063h1.4l1.67,4.999c0.155,0.466,0.267,0.813,0.337,1.046c0.08-0.257,0.207-0.635,0.378-1.133l1.7-4.912h1.25
		v7.063h-0.896v-5.908l-2.062,5.908h-0.842l-2.038-6.016v6.016H86.187L86.187,47.783z M99.625,40.721h0.938v4.078
		c0,0.711-0.081,1.274-0.24,1.691c-0.16,0.416-0.45,0.756-0.867,1.018c-0.42,0.262-0.967,0.393-1.647,0.393
		c-0.659,0-1.2-0.113-1.619-0.342c-0.421-0.229-0.72-0.557-0.899-0.989c-0.179-0.433-0.27-1.022-0.27-1.771v-4.078h0.938v4.077
		c0,0.612,0.057,1.066,0.171,1.356c0.113,0.29,0.308,0.516,0.585,0.672c0.276,0.158,0.615,0.236,1.014,0.236
		c0.684,0,1.172-0.156,1.463-0.467c0.291-0.313,0.436-0.91,0.436-1.798V40.721L99.625,40.721z M104.883,47.783v-7.063h0.961
		l3.704,5.543v-5.543h0.897v7.063h-0.96l-3.704-5.543v5.543H104.883L104.883,47.783z M112.613,47.783v-7.063h5.099v0.829h-4.161
		v2.17h3.896v0.828h-3.896v2.406h4.329v0.829H112.613L112.613,47.783z M121.546,47.783V41.55h-2.327v-0.829h5.591v0.829h-2.327
		v6.233H121.546L121.546,47.783z M127.572,47.783l-1.859-7.063h0.97l1.059,4.631c0.115,0.484,0.217,0.967,0.304,1.443
		c0.187-0.753,0.295-1.188,0.326-1.302l1.334-4.772h1.126l1.013,3.576c0.248,0.887,0.433,1.721,0.551,2.498
		c0.094-0.445,0.213-0.957,0.359-1.533l1.104-4.541h0.938l-1.934,7.063h-0.908l-1.481-5.381c-0.125-0.449-0.2-0.727-0.229-0.828
		c-0.08,0.322-0.152,0.599-0.215,0.827l-1.481,5.382H127.572L127.572,47.783z M135.955,44.346c0-1.17,0.315-2.088,0.945-2.75
		c0.629-0.662,1.441-0.992,2.438-0.992c0.652,0,1.239,0.156,1.764,0.467c0.522,0.311,0.922,0.744,1.196,1.301
		s0.412,1.188,0.412,1.893c0,0.715-0.145,1.355-0.434,1.92c-0.289,0.565-0.698,0.992-1.228,1.281
		c-0.531,0.291-1.104,0.436-1.717,0.436c-0.665,0-1.259-0.16-1.783-0.48c-0.522-0.321-0.92-0.758-1.189-1.314
		C136.09,45.553,135.955,44.965,135.955,44.346L135.955,44.346z M136.921,44.362c0,0.85,0.229,1.519,0.686,2.007
		s1.031,0.732,1.722,0.732c0.703,0,1.28-0.246,1.735-0.739c0.453-0.493,0.681-1.192,0.681-2.101c0-0.574-0.097-1.074-0.291-1.502
		s-0.479-0.76-0.852-0.994c-0.375-0.235-0.794-0.354-1.259-0.354c-0.661,0-1.229,0.227-1.706,0.68
		C137.16,42.546,136.921,43.303,136.921,44.362L136.921,44.362z M144.511,47.783v-7.063h3.129c0.63,0,1.108,0.064,1.436,0.191
		s0.588,0.35,0.784,0.671c0.195,0.32,0.292,0.675,0.292,1.063c0,0.501-0.162,0.924-0.486,1.268
		c-0.323,0.343-0.823,0.561-1.501,0.653c0.249,0.118,0.436,0.237,0.564,0.353c0.272,0.25,0.53,0.563,0.772,0.939l1.221,1.924h-1.167
		l-0.934-1.471c-0.271-0.425-0.496-0.749-0.672-0.975c-0.178-0.225-0.335-0.381-0.476-0.471c-0.138-0.089-0.28-0.152-0.425-0.188
		c-0.105-0.021-0.278-0.033-0.52-0.033h-1.082v3.137H144.511L144.511,47.783z M145.447,43.838h2.005c0.428,0,0.76-0.045,1-0.133
		c0.239-0.088,0.423-0.229,0.546-0.424c0.125-0.194,0.188-0.404,0.188-0.633c0-0.334-0.12-0.61-0.362-0.826
		c-0.241-0.215-0.622-0.322-1.144-0.322h-2.232V43.838L145.447,43.838z M152.152,47.783v-7.063h0.937v3.502l3.508-3.502h1.266
		l-2.962,2.863l3.09,4.199h-1.232l-2.513-3.564l-1.156,1.118v2.446H152.152z"/>
</g>
</svg>
