<?xml version="1.0" encoding="utf-8"?>
<!-- Generator: Adobe Illustrator 16.0.0, SVG Export Plug-In . SVG Version: 6.00 Build 0)  -->
<!DOCTYPE svg PUBLIC "-//W3C//DTD SVG 1.1//EN" "http://www.w3.org/Graphics/SVG/1.1/DTD/svg11.dtd">
<svg version="1.1" id="图层_1" xmlns="http://www.w3.org/2000/svg" xmlns:xlink="http://www.w3.org/1999/xlink" x="0px" y="0px"
	 width="56.69px" height="56.69px" viewBox="0 0 56.69 56.69" enable-background="new 0 0 56.69 56.69" xml:space="preserve">
<path fill-rule="evenodd" clip-rule="evenodd" fill="#009DDA" d="M5.712,26.795c-0.444,0-0.804-0.36-0.804-0.804v-9.259h0.016
	c-0.01-0.051-0.016-0.103-0.016-0.157c0-0.444,0.36-0.804,0.804-0.804h17.039l-5.513,11.024H5.712L5.712,26.795z M18.901,50.404
	l4.54-8.951v8.57l0,0.01c0,0.444,0.36,0.805,0.804,0.805l0,0h8.188l0,0c0.443,0,0.804-0.36,0.804-0.805v-0.01v-8.572l4.519,8.915
	c0.127,0.278,0.406,0.472,0.732,0.472h10.836l0,0c0.444,0,0.805-0.36,0.805-0.805c0-0.115-0.025-0.225-0.069-0.325l0.001-0.001
	L28.998,7.586h-0.002c-0.126-0.278-0.407-0.471-0.732-0.471s-0.605,0.193-0.732,0.471H27.53L6.467,49.708l0.001,0.001
	c-0.044,0.1-0.069,0.209-0.069,0.326c0,0.443,0.36,0.803,0.804,0.803h11.006l0,0C18.51,50.829,18.77,50.655,18.901,50.404
	L18.901,50.404z"/>
<path fill-rule="evenodd" clip-rule="evenodd" fill="#F18D00" d="M30.764,9.746l2.218-3.583c0.14-0.241,0.398-0.402,0.696-0.402
	c0.346,0,0.641,0.218,0.754,0.524h0.003l16.282,43.363L30.764,9.746L30.764,9.746z M50.816,26.795c0.443,0,0.804-0.36,0.804-0.804
	v-9.259h-0.016c0.01-0.051,0.016-0.103,0.016-0.157c0-0.444-0.36-0.804-0.804-0.804H38.652l4.14,11.024H50.816z"/>
</svg>
