<?xml version="1.0" encoding="utf-8"?>
<!-- Generator: Adobe Illustrator 16.0.0, SVG Export Plug-In . SVG Version: 6.00 Build 0)  -->
<!DOCTYPE svg PUBLIC "-//W3C//DTD SVG 1.1//EN" "http://www.w3.org/Graphics/SVG/1.1/DTD/svg11.dtd">
<svg version="1.1" id="图层_1" xmlns="http://www.w3.org/2000/svg" xmlns:xlink="http://www.w3.org/1999/xlink" x="0px" y="0px"
	 width="1700.79px" height="566.93px" viewBox="0 0 1700.79 566.93" enable-background="new 0 0 1700.79 566.93"
	 xml:space="preserve">
<path fill-rule="evenodd" clip-rule="evenodd" fill="#009DDA" d="M1157.372,259.345c-5.148,0-9.327-4.173-9.327-9.321V142.632h0.181
	c-0.119-0.589-0.181-1.195-0.181-1.817c0-5.149,4.179-9.328,9.327-9.328h197.621l-63.936,127.857H1157.372L1157.372,259.345z
	 M1310.341,533.172l52.656-103.819v99.401l-0.006,0.113c0,5.155,4.18,9.334,9.328,9.334l0,0h94.971l0,0
	c5.146,0,9.322-4.179,9.322-9.334v-0.113v-99.423l52.406,103.399c1.466,3.228,4.717,5.471,8.494,5.471h125.678l0,0
	c5.154,0,9.326-4.179,9.326-9.334c0-1.336-0.287-2.605-0.797-3.771l0.016-0.012L1427.437,36.561h-0.021
	c-1.467-3.222-4.717-5.465-8.488-5.465c-3.773,0-7.023,2.244-8.489,5.465h-0.019l-244.291,488.535l0.01,0.01
	c-0.514,1.156-0.797,2.426-0.797,3.783c0,5.143,4.172,9.313,9.326,9.313h127.648l0,0c3.488-0.103,6.496-2.12,8.014-5.029H1310.341z"
	/>
<path fill-rule="evenodd" clip-rule="evenodd" fill="#F18D00" d="M1447.921,61.609l25.723-41.563
	c1.615-2.792,4.622-4.667,8.082-4.667c4.004,0,7.424,2.531,8.743,6.083h0.028l188.851,502.932L1447.921,61.609L1447.921,61.609z
	 M1680.491,259.345c5.146,0,9.328-4.173,9.328-9.321V142.632h-0.182c0.113-0.589,0.182-1.195,0.182-1.817
	c0-5.149-4.182-9.328-9.328-9.328h-141.074l48.01,127.857H1680.491z"/>
<g>
	<path fill-rule="evenodd" clip-rule="evenodd" d="M49.968,174.015v-22.652h101.118v-19.84l22.402,0.127v19.713H274.52v22.652
		H173.488v163.609h-22.402V174.015H49.968L49.968,174.015z M50.177,337.624c18.674-1.539,30.787-10.012,36.347-25.394
		c1.246-3.329,2.611-10.793,4.145-22.37l13.111-100.538H81.167L67.105,296.78c-0.912,7.228-3.069,12.121-6.472,14.702
		c-2.243,1.78-5.727,3.025-10.456,3.647V337.624L50.177,337.624z M220.793,189.322l14.434,114.029
		c0.668,4.846,2.284,9.694,4.859,14.6c3.817,7.056,9.293,12.289,16.423,15.686c3.986,1.949,9.797,3.272,17.512,3.987V315.13
		c-4.055-0.622-6.92-1.45-8.633-2.402c-2.898-1.629-5.096-4.326-6.545-8.051c-0.668-1.712-1.619-7.557-2.945-17.589l-12.867-97.766
		H220.793L220.793,189.322z M323.813,174.015v-22.652h101.121v-19.84l22.404,0.127v19.713h101.031v22.652H447.338v163.609h-22.404
		V174.015H323.813L323.813,174.015z M324.027,337.624c18.666-1.539,30.785-10.012,36.346-25.394
		c1.246-3.329,2.605-10.793,4.146-22.37l13.115-100.538h-22.617L340.961,296.78c-0.93,7.228-3.082,12.121-6.479,14.702
		c-2.244,1.78-5.732,3.025-10.455,3.647V337.624L324.027,337.624z M494.637,189.322l14.439,114.029
		c0.67,4.846,2.277,9.694,4.859,14.6c3.809,7.056,9.289,12.289,16.424,15.686c3.988,1.949,9.799,3.272,17.512,3.987V315.13
		c-4.066-0.622-6.932-1.45-8.631-2.402c-2.9-1.629-5.098-4.326-6.547-8.051c-0.668-1.712-1.631-7.557-2.945-17.589l-12.867-97.766
		H494.637L494.637,189.322z M598.203,336.629V162.189c0-9.003,2.947-16.515,8.881-22.488c5.844-5.854,13.852-8.754,23.977-8.754
		h155.809c10.781,0,19.207,2.609,25.27,7.882c6.432,5.687,9.627,13.734,9.627,24.104v142.569c0,8.506-2.742,15.722-8.26,21.61
		c-5.934,6.354-13.941,9.517-24.113,9.517h-20.738v-22.371h17.092c3.398,0,6.514-1.212,9.254-3.659
		c2.74-2.445,4.146-5.187,4.146-8.245l-0.125-134.188c0-10.001-5.268-14.979-15.811-14.979H636.328
		c-10.488,0-15.719,4.978-15.719,14.939v168.503H598.203L598.203,336.629z M631.809,303.057
		c8.258-5.732,14.645-10.749,19.086-15.063c5.152-4.689,10.547-10.829,16.221-18.338c11.744,15.302,23.57,26.424,35.404,33.401
		v-25.394c-9.344-8.507-17.475-17.557-24.441-27.093c5.971-11.207,11.156-24.817,15.551-40.872
		c4.158-15.478,7.135-26.305,9.004-32.575h-21.529c-6.096,23.61-10.83,40-14.227,49.253c-3.32-9.877-7.973-26.305-13.908-49.253
		h-21.283c3.736,14.356,7.51,27.887,11.326,40.624c3.16,10.289,7.35,21.242,12.529,32.941c-5.18,8.762-13.105,17.506-23.732,26.271
		V303.057L631.809,303.057z M713.973,302.965c13.104-8.21,24.883-19.287,35.426-33.31c2.742,4.111,6.934,9.051,12.572,14.814
		c7.389,7.544,14.941,13.772,22.699,18.699v-26.005c-9.955-7.929-17.975-16.808-24.021-26.594
		c6.139-13.942,11.281-28.011,15.436-42.203c2.313-8.008,5.145-18.421,8.463-31.244h-21.08
		c-9.422,32.903-14.191,49.667-14.314,50.205c-5.02-16.513-9.582-33.277-13.729-50.205h-21.203
		c4.768,18.507,8.244,31.284,10.408,38.427c2.525,8.256,6.934,19.916,13.229,34.895c-5.594,9.254-13.557,18.17-23.885,26.845
		V302.965L713.973,302.965z M907.189,131.438h26.762l-35.973,65.978h14.816l5.48-9.254l27.344,0.124l-46.803,82.071h43.518v22.2
		h-48.75c-14.521,0.078-21.781-4.656-21.781-14.102c0-4.575,1.123-8.926,3.4-13.025l24.939-45.572l-13.535-0.118
		c-5.346,0-9.367-1.535-12.152-4.604c-2.447-2.656-3.646-5.77-3.646-9.254c0-5.148,2.027-11.497,6.092-18.928L907.189,131.438
		L907.189,131.438z M872.801,336.332v-22.901h71.742v22.901H872.801L872.801,336.332z M955.947,240.897v-22.862
		c10.252-0.165,17.793-0.414,22.652-0.825c4.689-0.5,10.703-1.66,18.135-3.529l-28.68-21.867l36.02,0.126l17.385,11.534
		c27.514-18.133,41.285-29.871,41.285-35.23c0-3.152-4.021-4.729-12.029-4.729h-64.934c-4.486,6.475-8.586,11.537-12.324,15.19
		c-4.643,4.603-10.5,8.669-17.51,12.112v-26.095c5.846-5.522,10.207-11.62,12.98-18.343c1.711-3.982,3.488-9.211,5.447-15.683
		l23.605,0.124l-2.447,9.832l60.869-0.078c11.779,0,20.33,2.36,25.721,7.127c5.516,4.939,8.258,10.627,8.258,17.021
		c0,3.403-1.168,7.384-3.521,11.909c-2.912,5.601-6.186,9.871-9.752,12.854l-30.537,24.896c7.713,2.203,14.555,3.529,20.535,4.027
		c1.867,0.164,11.121,0.413,27.795,0.748v22.324c-15.846-0.461-28.871-1.62-38.996-3.404c-9.006-1.535-19.674-4.521-31.988-8.959
		c-11.664,4.689-22.662,7.674-33.037,8.959C983.459,238.989,971.793,239.901,955.947,240.897L955.947,240.897z M977.15,251.934
		h92.57c7.09,0,12.607,2.08,16.469,6.225c3.941,4.236,5.936,9.037,5.936,14.44v38.387c0,17.373-6.932,26.095-20.828,26.095H979.1
		c-5.721,0-9.83-0.668-12.244-1.947c-7.09-3.647-10.658-9.832-10.658-18.554v-35.314c0-0.158,0-1.449,0-3.896
		c-0.25-8.586,1.824-15.099,6.264-19.571C966.324,253.884,971.215,251.934,977.15,251.934L977.15,251.934z M987.355,314.632
		l75.559,0.124c4.52,0,6.807-2.955,6.807-8.847v-24.896c0-1.9-0.715-3.521-2.072-4.938c-1.121-1.154-2.332-1.731-3.535-1.731
		l-3.023,0.248h-73.236l-4.27-0.248c-3.318,0.17-4.984,2.695-4.984,7.634v26.219C978.6,312.435,981.498,314.542,987.355,314.632z"/>
	<path fill-rule="evenodd" clip-rule="evenodd" d="M47.669,461.24v-81.913h16.242l19.373,57.981c1.79,5.401,3.087,9.433,3.907,12.13
		c0.929-2.979,2.401-7.361,4.385-13.138l19.707-56.974h14.508v81.913h-10.407v-68.524L91.48,461.24h-9.759L58.078,391.47v69.771
		H47.669L47.669,461.24z M203.538,379.327h10.867v47.3c0,8.246-0.936,14.781-2.781,19.616c-1.87,4.825-5.226,8.769-10.069,11.805
		c-4.859,3.034-11.207,4.551-19.101,4.551c-7.646,0-13.915-1.313-18.773-3.964c-4.883-2.649-8.354-6.457-10.432-11.474
		c-2.079-5.016-3.127-11.858-3.127-20.534v-47.3h10.867v47.287c0,7.103,0.664,12.369,1.983,15.734
		c1.32,3.363,3.567,5.979,6.791,7.792c3.199,1.833,7.124,2.741,11.755,2.741c7.93,0,13.592-1.813,16.968-5.414
		c3.375-3.625,5.052-10.558,5.052-20.854V379.327L203.538,379.327z M264.404,461.24v-81.913h16.244l19.365,57.981
		c1.803,5.401,3.092,9.433,3.908,12.13c0.93-2.979,2.402-7.361,4.385-13.138l19.719-56.974h14.5v81.913h-10.4v-68.524l-23.91,68.524
		h-9.764l-23.637-69.771v69.771H264.404L264.404,461.24z M420.268,379.327h10.875v47.3c0,8.246-0.941,14.781-2.789,19.616
		c-1.857,4.825-5.221,8.769-10.057,11.805c-4.871,3.034-11.213,4.551-19.107,4.551c-7.646,0-13.92-1.313-18.779-3.964
		c-4.883-2.649-8.348-6.457-10.434-11.474c-2.072-5.016-3.125-11.858-3.125-20.534v-47.3h10.873v47.287
		c0,7.103,0.658,12.369,1.98,15.734c1.316,3.363,3.57,5.979,6.789,7.792c3.203,1.833,7.133,2.741,11.754,2.741
		c7.93,0,13.592-1.813,16.969-5.414c3.373-3.625,5.051-10.558,5.051-20.854V379.327L420.268,379.327z M481.248,461.24v-81.913
		h11.146l42.959,64.29v-64.29h10.41v81.913h-11.133l-42.961-64.287v64.287H481.248L481.248,461.24z M570.908,461.24v-81.913h59.135
		v9.618h-48.262v25.167h45.182v9.604h-45.182v27.909h50.211v9.615H570.908L570.908,461.24z M674.512,461.24v-72.295H647.52v-9.618
		h64.844v9.618h-26.992v72.295H674.512L674.512,461.24z M744.404,461.24l-21.564-81.913h11.246l12.279,53.71
		c1.336,5.619,2.516,11.213,3.521,16.742c2.164-8.733,3.422-13.774,3.783-15.098l15.473-55.354h13.059l11.746,41.477
		c2.875,10.286,5.016,19.958,6.387,28.976c1.088-5.167,2.469-11.101,4.17-17.783l12.797-52.669h10.887L805.76,461.24h-10.531
		l-17.184-62.407c-1.451-5.212-2.322-8.428-2.65-9.606c-0.93,3.739-1.768,6.944-2.492,9.594l-17.184,62.42H744.404L744.404,461.24z
		 M841.631,421.373c0-13.572,3.658-24.216,10.963-31.896c7.295-7.68,16.719-11.507,28.271-11.507c7.566,0,14.373,1.813,20.455,5.413
		c6.061,3.603,10.693,8.631,13.877,15.087c3.182,6.457,4.779,13.773,4.779,21.951c0,8.29-1.678,15.721-5.029,22.267
		c-3.354,6.558-8.1,11.509-14.238,14.859c-6.162,3.378-12.799,5.052-19.912,5.052c-7.713,0-14.6-1.856-20.682-5.571
		c-6.059-3.728-10.67-8.79-13.795-15.245C843.193,435.37,841.631,428.552,841.631,421.373L841.631,421.373z M852.832,421.564
		c0,9.854,2.652,17.611,7.953,23.276c5.301,5.663,11.959,8.492,19.967,8.492c8.156,0,14.85-2.853,20.129-8.572
		c5.254-5.721,7.893-13.829,7.893-24.364c0-6.658-1.119-12.459-3.375-17.419c-2.256-4.961-5.551-8.813-9.877-11.53
		c-4.348-2.731-9.207-4.101-14.6-4.101c-7.668,0-14.26,2.628-19.789,7.885C855.607,400.498,852.832,409.275,852.832,421.564
		L852.832,421.564z M940.863,461.24v-81.913h36.287c7.307,0,12.855,0.748,16.65,2.222c3.795,1.472,6.818,4.055,9.096,7.78
		c2.266,3.715,3.387,7.828,3.387,12.334c0,5.811-1.881,10.716-5.641,14.702c-3.748,3.975-9.551,6.502-17.408,7.577
		c2.887,1.372,5.051,2.753,6.545,4.089c3.162,2.9,6.15,6.523,8.959,10.897l14.16,22.312h-13.535l-10.83-17.058
		c-3.148-4.927-5.754-8.688-7.791-11.303c-2.063-2.605-3.887-4.417-5.518-5.458c-1.596-1.032-3.25-1.769-4.928-2.177
		c-1.223-0.25-3.225-0.385-6.023-0.385h-12.551v36.38H940.863L940.863,461.24z M951.723,415.481h23.256
		c4.959,0,8.811-0.521,11.596-1.539c2.775-1.02,4.904-2.651,6.334-4.917c1.449-2.253,2.172-4.688,2.172-7.34
		c0-3.873-1.391-7.078-4.201-9.581c-2.797-2.491-7.217-3.737-13.264-3.737h-25.893V415.481L951.723,415.481z M1029.49,461.24
		v-81.913h10.861v40.618l40.684-40.618h14.682l-34.355,33.209l35.838,48.704h-14.295l-29.141-41.342l-13.412,12.97v28.372H1029.49z"
		/>
</g>
</svg>
